<svg xmlns="http://www.w3.org/2000/svg" xmlns:xlink="http://www.w3.org/1999/xlink" width="96" zoomAndPan="magnify" viewBox="0 0 72 72" height="96" preserveAspectRatio="xMidYMid meet" version="1.0"><defs><clipPath id="4aec758870"><path d="M 0.933594 0.933594 L 71.433594 0.933594 L 71.433594 71.433594 L 0.933594 71.433594 Z M 0.933594 0.933594 " clip-rule="nonzero"/></clipPath></defs><g clip-path="url(#4aec758870)"><path fill="#f97316" d="M 35.996094 0.933594 C 16.632812 0.933594 0.933594 16.632812 0.933594 35.996094 C 0.933594 55.363281 16.632812 71.058594 35.996094 71.058594 C 55.363281 71.058594 71.058594 55.363281 71.058594 35.996094 C 71.058594 16.632812 55.363281 0.933594 35.996094 0.933594 Z M 51.753906 54.40625 L 41.523438 54.40625 L 41.523438 40.273438 L 30.472656 40.273438 L 30.472656 54.40625 L 20.242188 54.40625 L 20.242188 17.589844 L 30.472656 17.589844 L 30.472656 30.875 L 41.523438 30.875 L 41.523438 17.589844 L 51.753906 17.589844 Z M 51.753906 54.40625 " fill-opacity="1" fill-rule="nonzero"/></g></svg>